<svg fill="none" height="155" viewBox="0 0 183 155" width="183" xmlns="http://www.w3.org/2000/svg"><path d="m44.913 0h-44.913v115.836h115.836v-115.836z" fill="#000"/><path d="m25.717 16.635-12.03 12.03 12.031 12.735h10.614l-12.62-12.795 12.619-11.97zm45.345 0 12.029 12.03-12.03 12.735h-10.612l12.619-12.796-12.619-11.97h10.614zm-22.938 0-7.209 24.766h7.936l7.209-24.766z" fill="#fff"/><path d="m164.412 72.97h-54.945c-7.555 0-13.736-6.181-13.736-13.736s6.181-13.737 13.736-13.737h54.945c7.555 0 13.737 6.182 13.737 13.737s-6.182 13.736-13.737 13.736z" fill="#000"/><path d="m106.052 73.528c-6.58 0-12.202-4.912-13.077-11.426l-.064-.476-.596.017c-1.913 0-3.47-1.556-3.47-3.47 0-1.913 1.557-3.47 3.47-3.47.391 0 .782.07 1.162.204l.455.162.209-.436c2.183-4.559 6.859-7.505 11.911-7.505s9.727 2.946 11.911 7.505l.209.436.455-.162c.38-.135.771-.203 1.161-.203 1.913 0 3.47 1.556 3.47 3.47 0 1.913-1.557 3.47-3.47 3.47h-.469l-.189.458c-.875 6.514-6.497 11.426-13.078 11.426z" fill="#fff"/><path clip-rule="evenodd" d="m93.657 54.402c2.213-4.62 6.931-7.81 12.395-7.81s10.182 3.19 12.395 7.81c.42-.15.87-.235 1.341-.235 2.213 0 4.007 1.794 4.007 4.006 0 2.213-1.794 4.007-4.007 4.007-.024 0-.049-.002-.073-.004-.018 0-.036-.002-.053-.003-.902 6.714-6.65 11.891-13.61 11.891s-12.707-5.177-13.61-11.89l-.052.002c-.025.002-.05.004-.074.004-2.213 0-4.007-1.794-4.007-4.007 0-2.212 1.794-4.006 4.007-4.006.471 0 .921.085 1.341.235zm23.822.464c-2.095-4.375-6.58-7.201-11.427-7.201-4.846 0-9.332 2.826-11.427 7.2l-.417.872-.91-.324c-.323-.115-.653-.173-.982-.173-1.618 0-2.934 1.316-2.934 2.933 0 1.618 1.316 2.934 2.934 2.934l.02-.002.072-.004.97-.032.128.962c.84 6.248 6.233 10.96 12.546 10.96s11.706-4.712 12.546-10.96l.129-.962.97.032h.019l.073.005h.001c1.617 0 2.932-1.316 2.932-2.933s-1.316-2.933-2.934-2.933c-.329 0-.659.058-.981.173l-.91.324z" fill="#000" fill-rule="evenodd"/><path d="m104.68 62.3.002 2.052c0 .52.422.94.942.94s.942-.422.941-.942l-.001-2.052c-.001-.52-.423-.94-.943-.94s-.941.422-.941.941zm-8.298-.001.001 2.053c0 .52.422.94.943.94.52 0 .94-.422.94-.942l-.001-2.052c0-.52-.423-.941-.943-.94-.52 0-.94.421-.94.94zm.641-12.312c2.414-2.111 5.569-3.395 9.028-3.395 3.46 0 6.616 1.284 9.03 3.395z" fill="#000"/><path d="m95.432 89.005h-.005c0-3.794 3.075-6.868 6.868-6.868 3.794 0 6.869 3.074 6.869 6.868 0-3.794 3.075-6.868 6.868-6.868s6.868 3.074 6.868 6.868c0-3.794 3.075-6.868 6.868-6.868s6.868 3.074 6.868 6.868v.343h11.224c8.974 0 16.249 7.275 16.249 16.249v48.403h-54.945v-23.443l.02.016c-8.633-11.483-13.757-25.753-13.757-41.225 0-.115.004-.229.005-.343z" fill="#fff"/><path d="m164.109 154v-48.403c0-8.974-7.275-16.249-16.249-16.249h-11.224" fill="#fff"/><path d="m164.109 154v-48.403c0-8.974-7.275-16.249-16.249-16.249h-11.224m-27.468-.343c-.001.114-.004.228-.004.343 0 9.937 2.638 19.258 7.252 27.301m6.493-27.644c-.001.115-.009.228-.009.343 0 7.104 1.797 13.787 4.962 19.621" stroke="#000" stroke-linecap="round" stroke-linejoin="round"/><path d="m122.9 89.005c0-3.794-3.075-6.868-6.868-6.868s-6.868 3.074-6.868 6.868" fill="#fff"/><path d="m122.9 89.005c0-3.794-3.075-6.868-6.868-6.868s-6.868 3.074-6.868 6.868" stroke="#000" stroke-linecap="round" stroke-linejoin="round"/><path d="m136.636 89.005c0-3.794-3.075-6.868-6.868-6.868s-6.868 3.074-6.868 6.868" fill="#fff"/><path d="m136.636 89.005c0-3.794-3.075-6.868-6.868-6.868s-6.868 3.074-6.868 6.868" stroke="#000" stroke-linecap="round" stroke-linejoin="round"/><path d="m109.164 89.005c0-3.794-3.075-6.868-6.869-6.868-3.793 0-6.868 3.074-6.868 6.868" fill="#fff"/><path d="m109.164 89.005c0-3.794-3.075-6.868-6.869-6.868-3.793 0-6.868 3.074-6.868 6.868m.005 0c-.001.114-.005.228-.005.343 0 28.164 16.952 52.368 41.208 62.966" stroke="#000" stroke-linecap="round" stroke-linejoin="round"/><path d="m53.883 133.038 19.616 19.617m.001-19.617-19.617 19.617m127.919-149.337-16.15 16.15m5.878-16.15-16.15 16.15" stroke="#000"/><circle cx="139.2" cy="1.903" fill="#000" r="1.903"/><circle cx="139.2" cy="19.226" fill="#000" r="1.903"/><path d="m.454 153.459h24.489m59.4-21.225 13.632 10.672-13.632 10.553" stroke="#000"/><circle cx="37.123" cy="151.556" fill="#000" r="1.903"/></svg>